<svg xmlns="http://www.w3.org/2000/svg" width="500" viewBox="0 0 375 374.999991" height="500">
  <g clip-path="url(#a7033d36f3)" fill="#8b3a42">
    <g transform="matrix(1, 0, 0, 1, 250, 121)">
      <path d="M 0.703125 0.976562 L 24.515625 0.976562 L 24.515625 24.792969 L 0.703125 24.792969 Z M 0.703125 0.976562 " fill-opacity="1" fill-rule="nonzero"/>
    </g>
  </g>
  <g transform="matrix(1, 0, 0, 1, 134, 73)" fill="#8b3a42">
    <g transform="translate(0.932112, 157.083043)">
      <path d="M 34.59375 -78.484375 L 34.59375 -63.859375 C 40.226562 -74.171875 47.734375 -79.328125 57.109375 -79.328125 L 57.109375 -54.859375 L 51.203125 -54.859375 C 45.671875 -54.859375 41.519531 -53.546875 38.75 -50.921875 C 35.976562 -48.296875 34.59375 -43.703125 34.59375 -37.140625 L 34.59375 0 L 10.546875 0 L 10.546875 -78.484375 Z M 34.59375 -78.484375 "/>
    </g>
  </g>
  <g transform="matrix(1, 0, 0, 1, 188, 74)" fill="#8b3a42">
    <g transform="translate(0.167111, 153.45602)">
      <path d="M 62.84375 -77.25 L 86.53125 -77.25 L 86.53125 0 L 62.84375 0 L 62.84375 -11.359375 C 57.957031 -3.234375 50.160156 0.828125 39.453125 0.828125 C 30.597656 0.828125 23.421875 -2.125 17.921875 -8.03125 C 12.429688 -13.9375 9.6875 -21.96875 9.6875 -32.125 L 9.6875 -77.25 L 33.21875 -77.25 L 33.21875 -35.296875 C 33.21875 -30.316406 34.53125 -26.460938 37.15625 -23.734375 C 39.789062 -21.015625 43.414062 -19.65625 48.03125 -19.65625 C 52.644531 -19.65625 56.265625 -21.015625 58.890625 -23.734375 C 61.523438 -26.460938 62.84375 -30.316406 62.84375 -35.296875 Z M 62.84375 -77.25 "/>
    </g>
  </g>
  <g transform="matrix(1, 0, 0, 1, 271, 73)" fill="#8b3a42">
    <g transform="translate(0.971558, 155.099602)">
      <path d="M 64.375 -77.25 L 64.375 -57.734375 L 34.75 -19.515625 L 64.375 -19.515625 L 64.375 0 L 6.921875 0 L 6.921875 -19.515625 L 36.546875 -57.734375 L 6.921875 -57.734375 L 6.921875 -77.25 Z M 64.375 -77.25 "/>
    </g>
  </g>
  <g fill="#8b3a42" transform="translate(39.383516, 227.660939)">
    <path d="M 69.078125 -23.53125 C 73.046875 -23.53125 76.898438 -24.128906 80.640625 -25.328125 C 84.378906 -26.535156 87.125 -27.691406 88.875 -28.796875 L 91.5 -30.59375 L 102.578125 -8.4375 C 102.210938 -8.164062 101.707031 -7.796875 101.0625 -7.328125 C 100.414062 -6.867188 98.914062 -6.015625 96.5625 -4.765625 C 94.207031 -3.523438 91.691406 -2.441406 89.015625 -1.515625 C 86.335938 -0.597656 82.828125 0.226562 78.484375 0.96875 C 74.148438 1.707031 69.675781 2.078125 65.0625 2.078125 C 54.445312 2.078125 44.382812 -0.523438 34.875 -5.734375 C 25.375 -10.953125 17.71875 -18.128906 11.90625 -27.265625 C 6.09375 -36.410156 3.1875 -46.285156 3.1875 -56.890625 C 3.1875 -64.921875 4.890625 -72.628906 8.296875 -80.015625 C 11.710938 -87.398438 16.257812 -93.722656 21.9375 -98.984375 C 27.613281 -104.242188 34.234375 -108.441406 41.796875 -111.578125 C 49.367188 -114.710938 57.125 -116.28125 65.0625 -116.28125 C 72.445312 -116.28125 79.253906 -115.40625 85.484375 -113.65625 C 91.710938 -111.90625 96.117188 -110.148438 98.703125 -108.390625 L 102.578125 -105.765625 L 91.5 -83.609375 C 90.851562 -84.171875 89.882812 -84.84375 88.59375 -85.625 C 87.300781 -86.40625 84.71875 -87.441406 80.84375 -88.734375 C 76.96875 -90.023438 73.046875 -90.671875 69.078125 -90.671875 C 62.804688 -90.671875 57.175781 -89.65625 52.1875 -87.625 C 47.207031 -85.59375 43.265625 -82.914062 40.359375 -79.59375 C 37.453125 -76.28125 35.234375 -72.707031 33.703125 -68.875 C 32.179688 -65.039062 31.421875 -61.140625 31.421875 -57.171875 C 31.421875 -48.492188 34.671875 -40.71875 41.171875 -33.84375 C 47.679688 -26.96875 56.984375 -23.53125 69.078125 -23.53125 Z M 69.078125 -23.53125 "/>
  </g>
</svg>
